<svg xmlns="http://www.w3.org/2000/svg" version="1.1" xmlns:xlink="http://www.w3.org/1999/xlink" xmlns:svgjs="http://svgjs.dev/svgjs" viewBox="0 0 4.098635631297329 3.41584958321461"><g transform="matrix(1,0,0,1,2.0137939332872365,3.291800111819641)"><rect width="4.098635631297329" height="4.098635631297329" x="-2.0137939332872365" y="-3.633193135861" fill="#8fb0a1"></rect><g><path d=" M -0.7080438999524952 -2.962951056026908 Q -0.7039748236753417 -2.956783360114741 -0.7051442836036189 -2.949942825307091 Q -0.7063137435318961 -2.943102290499441 -0.7114721802384237 -2.9386166944132275 Q -0.7122090997679277 -2.93797589497234 -0.7142115984519094 -2.9365581262524967 Q -0.7162140971358912 -2.935140357532654 -0.7228463729014267 -2.929373162564665 Q -0.7298471084317142 -2.9232855678762317 -0.739435072610122 -2.912359937064131 Q -0.7490230367885298 -2.90143430625203 -0.758098361931677 -2.8854543691168746 Q -0.767173687074824 -2.869474431981719 -0.773669794727123 -2.848296008390584 Q -0.7801659023794221 -2.827117584799449 -0.7808227249972699 -2.8003401746705725 Q -0.7814795476151176 -2.7735627645416963 -0.7745749364855248 -2.7410662177643075 Q -0.7676703253559319 -2.708569670986919 -0.7492313234279455 -2.670249857177545 Q -0.7401960523463285 -2.6509297504126366 -0.7207558006451433 -2.6170394632127274 Q -0.7013155489439582 -2.5831491760128182 -0.6763644222236224 -2.541433123959358 Q -0.6514132955032865 -2.4997170719058976 -0.622296972417181 -2.453211042910662 Q -0.5931806493310753 -2.406705013915426 -0.564609005597241 -2.3623136234200857 Q -0.5360373618634068 -2.3179222329247455 -0.5099087657823528 -2.2782006692604106 Q -0.4837801697012989 -2.2384791055960753 -0.46425180734393834 -2.2108125837850823 Q -0.46082353050767255 -2.205381807402419 -0.4609597012081561 -2.1984691825283074 Q -0.46109587190863954 -2.191556557654195 -0.46625430861516715 -2.1870709615679815 Q -0.47141274532169475 -2.182585365481768 -0.47752437089469724 -2.1818003867703712 Q -0.48363599646769984 -2.181015408058975 -0.4895954316129213 -2.184892245883727 Q -0.5097645951360008 -2.198413118226052 -0.5473154447867815 -2.2207610060575425 Q -0.5848662944375623 -2.243108893889033 -0.6324376460782771 -2.270655269038918 Q -0.680008997718992 -2.2982016441888033 -0.7343007340565862 -2.328639627979955 Q -0.7885924703941807 -2.3590776117711068 -0.8418989775482895 -2.388754646010601 Q -0.8952054847023982 -2.4184316802500945 -0.9442026153578129 -2.4453853160034003 Q -0.9931997460132275 -2.472338951756706 -1.0305263160321807 -2.4929406608530527 Q -1.014426230511086 -2.470704915424723 -0.9963476771905795 -2.442101224474553 Q -0.9782691238700727 -2.4134975335243825 -0.9595657916983916 -2.378966446883586 Q -0.9408624595267105 -2.344435360242789 -0.9224074378714266 -2.3038647380954522 Q -0.9039524162161428 -2.263294115948115 -0.8870993940254936 -2.2171245081254516 Q -0.8615955811076925 -2.1461239176563134 -0.8567335218611958 -2.084350842758103 Q -0.8518714626146989 -2.0225777678598926 -0.8606664420989321 -1.9709293270599209 Q -0.8694614215831653 -1.919280886259949 -0.8883089425119276 -1.8773325494542985 Q -0.9071564634406898 -1.8353842126486484 -0.9283829513882111 -1.8039850383203215 Q -0.9496094393357324 -1.772585863991995 -0.9699548267584095 -1.7513353520592292 Q -0.9903002141810868 -1.7300848401264637 -1.00209092665315 -1.7198320490722612 Q -1.0426215007758668 -1.6845880798234398 -1.085995620908295 -1.6656364388601927 Q -1.1293697410407235 -1.6466847978969454 -1.1713821602052266 -1.6447704141812176 Q -1.2133945793697296 -1.6428560304654893 -1.2510815997209939 -1.6582912934228677 Q -1.2887686200722581 -1.673726556380246 -1.3176045949122028 -1.7068879352079234 Q -1.343556972268153 -1.736733176152833 -1.352696371145996 -1.7744041793640468 Q -1.361835770023839 -1.8120751825752606 -1.355836279954672 -1.8509396731496586 Q -1.3498367898855048 -1.8898041637240568 -1.3301562302010381 -1.9263297344419004 Q -1.3104756705165712 -1.962855305159744 -1.2787881307479017 -1.9904096811179133 Q -1.2526274874505117 -2.0131580612694253 -1.2273239146558117 -2.0261022087679743 Q -1.2020203418611117 -2.039046356266523 -1.1791037481048587 -2.045061859163662 Q -1.1561871543486055 -2.051077362060801 -1.1365706787478227 -2.0519584591359825 Q -1.1169542031470399 -2.052839556211164 -1.1021917842596383 -2.0511174057733434 Q -1.0874293653722367 -2.049395255335522 -1.0784341423152397 -2.046864096164151 Q -1.0694389192582427 -2.0443329369927796 -1.0677408005674072 -2.0438683571394116 Q -1.0637037637448488 -2.042202277903171 -1.0604997665404103 -2.0385176802556515 Q -1.0560141704541968 -2.033359243549124 -1.0560382013387666 -2.0255735293074397 Q -1.0560622322233364 -2.017787815065756 -1.06232604822412 -2.012341019818211 Q -1.0704321630486633 -2.0052922259684465 -1.0808932148698114 -2.009137024338604 Q -1.082222873795895 -2.0099220039124157 -1.097209572315124 -2.0133903330853804 Q -1.1121962708343531 -2.0168586622583446 -1.135993963390619 -2.0155770659638166 Q -1.1597916559468848 -2.014295469669288 -1.190117494747629 -2.0037783509586378 Q -1.2204433335483729 -1.9932612322479875 -1.2524993330817944 -1.9653864565693744 Q -1.2786599763791844 -1.9426380764178623 -1.2958414172092907 -1.9121680609338565 Q -1.3130228580393968 -1.8816980454498506 -1.3187259775478584 -1.8495619498671887 Q -1.3244290970563202 -1.8174258542845267 -1.317612595720487 -1.7861468266173077 Q -1.3107960943846537 -1.7548677989500887 -1.2893293131149173 -1.7301809947117066 Q -1.2659401335225176 -1.7032834318848127 -1.234028318434099 -1.6918852066124086 Q -1.2021165033456802 -1.6804869813400047 -1.1667844191286052 -1.683386595101634 Q -1.1314523349115302 -1.6862862088632633 -1.0953673097128223 -1.7024583827259887 Q -1.0592822845141145 -1.7186305565887143 -1.026857825215941 -1.7468257319877714 Q -1.014330193214374 -1.7577193224828616 -0.9952984449904828 -1.7775040056514757 Q -0.9762666967665916 -1.79728868882009 -0.9564259380843185 -1.8261887451564718 Q -0.9365851794020454 -1.8550888014928535 -0.9199083673123434 -1.8932083613804753 Q -0.9032315552226413 -1.9313279212680972 -0.8957822552542047 -1.9785708654807586 Q -0.8883329552857682 -2.02581380969342 -0.8932110351219782 -2.0823964084305078 Q -0.8980891149581882 -2.1389790071675954 -0.9218627697305589 -2.205013401107439 Q -0.946181103855201 -2.273162433547178 -0.9748328462255227 -2.328807865732335 Q -1.0034845885958443 -2.384453297917492 -1.029997664168948 -2.4261052701993466 Q -1.0565107397420512 -2.467757242481201 -1.0778093108567095 -2.494855054917769 Q -1.0991078819713676 -2.521952867354336 -1.1087198735846824 -2.5330066602968953 L -1.115127867993559 -2.5403758555919347 Q -1.1202542635206603 -2.5462712118279662 -1.1200700327758686 -2.553872696187274 Q -1.119885802031077 -2.5614741805465817 -1.1136219860302934 -2.566920975794127 Q -1.104410491911494 -2.574930968805223 -1.0927159012528787 -2.568923471890862 Q -1.089367723915516 -2.5673054526989296 -1.071209068508859 -2.557212858055286 Q -1.0530504131022025 -2.547120263411643 -1.0240462263823478 -2.5312524617803227 Q -0.9950420396624933 -2.5153846601490026 -0.9572108400407203 -2.494574691148126 Q -0.9193796404189473 -2.4737647221472487 -0.8768946345558821 -2.45020732463803 Q -0.834409628692817 -2.4266499271288104 -0.789105105117363 -2.401338340589591 Q -0.7438005815419091 -2.3760267540503723 -0.7000099467749146 -2.3513399472247434 Q -0.65621931200792 -2.326653140399114 -0.6159610844606642 -2.3034241529051953 Q -0.5757028569134085 -2.2801951654112766 -0.5427817834817658 -2.2609391358307267 Q -0.5643607037050005 -2.2939403139357664 -0.5882465017429476 -2.3310826592468374 Q -0.6121322997808948 -2.3682250045579085 -0.6361062076126016 -2.4065848689791496 Q -0.6600801154443084 -2.4449447334003906 -0.6829326242544619 -2.4820149886449996 Q -0.7057851330646154 -2.5190852438896085 -0.7251132449498867 -2.552102441721946 Q -0.744441356835158 -2.5851196395542835 -0.759564222605208 -2.6114404818494794 Q -0.7746870883752579 -2.637761324144676 -0.78285728038416 -2.654598332644937 Q -0.8029463409586737 -2.6940715857928748 -0.8123500692177958 -2.7353951463345973 Q -0.821753797476918 -2.7767187068763204 -0.8184616853042259 -2.816464297113147 Q -0.815169573131534 -2.8562098873499733 -0.7977638518071846 -2.8923750085979214 Q -0.7803581304828352 -2.92854012984587 -0.7464598321256538 -2.958016904126702 Q -0.7335637403593348 -2.9692308943422363 -0.7252894162421286 -2.9712494118910997 Q -0.7170150921249224 -2.973267929439963 -0.7096458985547143 -2.964793354850668 L -0.7080438999524952 -2.962951056026908 L -0.7080438999524952 -2.962951056026908 M -0.2408811999223917 -2.583309733997707 Q -0.23811967209294516 -2.564961698891193 -0.24898921006247862 -2.5502405563174317 Q -0.2598587480320121 -2.5355194137436703 -0.2782067831385255 -2.5327578859142235 Q -0.2965548182450389 -2.529996358084777 -0.31127596081880043 -2.5408658960543105 Q -0.325997103392562 -2.551735434023844 -0.32875863122200855 -2.5700834691303576 Q -0.33013939513673185 -2.579257486683614 -0.3279585783851601 -2.5877330991589718 Q -0.3257777616335884 -2.59620871163433 -0.32065062108192166 -2.6031526468106323 Q -0.3155234805302549 -2.610096581986935 -0.3080652730446932 -2.614675567643026 Q -0.3006070655591315 -2.6192545532991174 -0.2914330480058748 -2.6206353172138406 Q -0.2822590304526181 -2.6220160811285638 -0.2737834179772603 -2.619835264376992 Q -0.26530780550190247 -2.61765444762542 -0.2583638703255998 -2.6125273070737536 Q -0.2514199351492972 -2.607400166522087 -0.24684094949320612 -2.599941959036525 Q -0.242261963837115 -2.5924837515509633 -0.2408811999223917 -2.583309733997707 M -0.2765161046381677 -2.2885908897664646 Q -0.28698084167607046 -2.358120285959568 -0.28868173240484984 -2.4284749312532905 Q -0.2887334513364084 -2.435380077230924 -0.28442665327300837 -2.4412129827790183 Q -0.2801198552096083 -2.4470458883271125 -0.27191152371458915 -2.448281308671865 Q -0.26466887827780755 -2.449371385446647 -0.2590047224592873 -2.444545408461635 Q -0.25334056664076704 -2.4397194314766235 -0.2522504898659855 -2.432476786039842 Q -0.2518144591560729 -2.4295797278651294 -0.25084141317930675 -2.4149127575291027 Q -0.2498683672025406 -2.4002457871930756 -0.24854243872756074 -2.3799534502371977 Q -0.24721651025258085 -2.3596611132813194 -0.24504437982355504 -2.3370272329648327 Q -0.2428722493945292 -2.3143933526483464 -0.2400380497800972 -2.295562474512714 Q -0.23618644517586912 -2.269971793969419 -0.22875476035809533 -2.255042449265406 Q -0.22132307554032155 -2.240113104561393 -0.2120480734301239 -2.232621014489515 Q -0.2027730713199263 -2.2251289244176364 -0.1934044445713164 -2.2235762942651545 Q -0.18403581782270645 -2.2220236641126725 -0.1758274863276873 -2.2232590844574247 Q -0.1623078815123616 -2.225293894437017 -0.14927602633850712 -2.2371309085689552 Q -0.13624417116465262 -2.248967922700894 -0.12365080000688694 -2.268639432976211 Q -0.11105742884912126 -2.288310943251528 -0.09927637705908499 -2.3150200133415604 Q -0.08749532526904874 -2.3417290834315923 -0.07703284203546379 -2.3739181765715047 Q -0.07534534473972423 -2.37910996578762 -0.07139945229507516 -2.382419648512642 Q -0.06745355985042611 -2.385729331237664 -0.062142286530119606 -2.3865287208725037 Q -0.05441679806421923 -2.3876914694322706 -0.04847488483864684 -2.3826604068251926 Q -0.04253297161307451 -2.3776293442181142 -0.04151556662327843 -2.3708695418104515 Q -0.04078884877342406 -2.3660411115192637 -0.04221151839500109 -2.362370523175491 Q -0.04633418368976136 -2.3503930720859336 -0.0526271893093799 -2.333151159995276 Q -0.05892019492899844 -2.3159092479046186 -0.06748207212424001 -2.2973382908307967 Q -0.07604394931948155 -2.2787673337569747 -0.08681495603825029 -2.2601107751652774 Q -0.09758596275701903 -2.24145421657358 -0.11055562257260154 -2.2259232079382656 Q -0.12352528238818405 -2.2103921993029507 -0.13870652503346997 -2.1997130271184266 Q -0.15388776767875587 -2.1890338549339026 -0.17078727369791294 -2.1864903424594124 Q -0.19251521000825778 -2.183220112135068 -0.21031263691301935 -2.18992328899882 Q -0.22811006381778096 -2.196626465862572 -0.24178237212160608 -2.210369655847215 Q -0.2554546804254312 -2.2241128458318578 -0.26416859790716357 -2.244280792071192 Q -0.2728825153888959 -2.264448738310526 -0.2765161046381677 -2.2885908897664646 M -0.2679204095530431 -2.579240114038522 Q -0.26893781454283916 -2.5859999164461853 -0.27477072009093334 -2.5903067145095853 Q -0.2806036256390276 -2.5946135125729852 -0.2873634280466904 -2.5935961075831893 Q -0.29412323045435323 -2.592578702593393 -0.2981886070031939 -2.586782132937792 Q -0.30225398355203453 -2.58098556328219 -0.30123657856223846 -2.574225760874527 Q -0.3002191735724423 -2.5674659584668644 -0.29466402543140024 -2.563364246025531 Q -0.28910887729035817 -2.5592625335841976 -0.28234907488269534 -2.5602799385739936 Q -0.2755892724750325 -2.56129734356379 -0.2712461385191397 -2.5668888275973245 Q -0.26690300456324695 -2.5724803116308594 -0.2679204095530431 -2.579240114038522 M 0.016199792088975762 -2.421538979710232 Q 0.013324352462194752 -2.4085253834208356 0.009594954419356816 -2.397285217968558 Q 0.005865556376518866 -2.3860450525162804 0.0025857279145579948 -2.377710151369429 Q -0.0006941005474028761 -2.3693752502225776 -0.003020117682575832 -2.3641548106219505 Q -0.005346134817748774 -2.358934371021323 -0.005867546016522382 -2.3584816376340005 Q -0.011528063778689993 -2.347622363951149 -0.023704871104892576 -2.3484808365942866 Q -0.03052388320756602 -2.3489615812744438 -0.03600819221402548 -2.354487907220155 Q -0.04149250122048494 -2.3600142331658662 -0.04094307872887688 -2.3678073898546357 Q -0.04073704529452386 -2.3707298236129244 -0.03965988399125115 -2.3721223626806176 Q -0.03858272268797844 -2.373514901748311 -0.03632538336425649 -2.377761196762842 Q -0.03406804404053455 -2.382007491777373 -0.03042449326201036 -2.39202997649703 Q -0.026780942483486177 -2.4020524612166874 -0.0208863799941311 -2.423174591959274 Q -0.02916660897594886 -2.423758353356608 -0.037899571345089214 -2.424863525952715 Q -0.046632533714229575 -2.425968698548822 -0.05397612082212216 -2.429423385345856 Q -0.06131970793001474 -2.43287807214289 -0.06574402508606424 -2.4395534010097704 Q -0.07016834224211373 -2.4462287298766507 -0.06937854741042715 -2.457431392616757 Q -0.06879478601309359 -2.4657116215985746 -0.06317177096309702 -2.4795104984925773 Q -0.05754875591310044 -2.49330937538658 -0.048794109864016694 -2.506397977100319 Q -0.04003946381493296 -2.519486578814058 -0.029594070386598073 -2.528784782707034 Q -0.019148676958263187 -2.53808298660001 -0.009407231097301114 -2.5373962084855 Q 0.0017954316428052536 -2.5366064136538133 0.008274218494669194 -2.5278282705389756 Q 0.014753005346533149 -2.5190501274241384 0.017808280500643148 -2.5068421449986555 Q 0.020863555654753146 -2.494634162573173 0.021641158225832915 -2.481363024490835 Q 0.022418760796912685 -2.468091886408497 0.021731982682402617 -2.458350440547535 Q 0.030012211664220384 -2.4577666791502013 0.03806607395237685 -2.4574436233522547 Q 0.0461199362405333 -2.4571205675543077 0.053426020636254845 -2.4566054839684255 Q 0.08118914133999675 -2.454648166342072 0.09494283748830226 -2.441441191844104 Q 0.10869653363660778 -2.4282342173461364 0.1067392160102541 -2.4004710966423946 Q 0.10594942117856751 -2.3892684339022883 0.10362973165628564 -2.377194643293262 Q 0.10131004213400374 -2.3651208526842358 0.0984517719600855 -2.352350792541363 Q 0.09559350178616724 -2.3395807323984905 0.09323947335815985 -2.327019869496416 Q 0.09088544493015244 -2.3144590065943422 0.09002697228701487 -2.3022821992681397 Q 0.08879077168089675 -2.284747596718408 0.09285453032682847 -2.2729580087745225 Q 0.09691828897276017 -2.261168420830637 0.10374362868832468 -2.2538343251420807 Q 0.11056896840388919 -2.246500229453525 0.1186603334042167 -2.243237570444427 Q 0.12675169840454417 -2.2399749114353287 0.13357071050721764 -2.2394941667551715 Q 0.15451481910828607 -2.238017593808975 0.1739850556044281 -2.250350739596753 Q 0.1934552921005701 -2.2626838853845306 0.21039799225426675 -2.2808243959767145 Q 0.2273406924079635 -2.2989649065688984 0.2412719477326123 -2.3195204453670146 Q 0.2552032030572611 -2.340075984165131 0.2646166159280204 -2.355565608438385 Q 0.26736102754479046 -2.35977756454719 0.2719163727108509 -2.361903875860901 Q 0.2764717178769113 -2.3640301871746123 0.28134244080739235 -2.363686798117357 Q 0.2901097420822582 -2.363068697814298 0.29458556759689597 -2.3571239773869896 Q 0.2990613931115337 -2.3511792569596817 0.29858064843137666 -2.344360244857008 Q 0.2982372593741216 -2.3394895219265273 0.2960142589561252 -2.335730299205044 Q 0.2834037010812732 -2.3165501300217586 0.2667795424984426 -2.292513243554409 Q 0.2501553839156121 -2.2684763570870596 0.22961431372908836 -2.24789732122319 Q 0.20907324354256468 -2.2273182853593196 0.18438573125224106 -2.2138844812025154 Q 0.15969821896191747 -2.200450677045711 0.13144802596512747 -2.2024423335777903 Q 0.11391342341539576 -2.2036785341839082 0.09879068526515072 -2.2113528551232737 Q 0.08366794711490572 -2.219027176062639 0.07309739032427565 -2.2322544838199154 Q 0.06252683353364555 -2.245481791577191 0.056995530395678465 -2.264227747246652 Q 0.05146422725771138 -2.282973702916113 0.053078155826810025 -2.305866100689374 Q 0.05479510111308519 -2.330219715341779 0.06136559987697862 -2.353986404790405 Q 0.06793609864087208 -2.3777530942390315 0.06948134939851972 -2.399671347426196 Q 0.07013378860730429 -2.4089257209941097 0.06631989372078767 -2.413844788476734 Q 0.0625059988342711 -2.4187638559593574 0.048380902335876094 -2.4197596842253972 Q 0.04156189023320264 -2.420240428905554 0.033525197397908935 -2.4208070208500247 Q 0.025488504562615227 -2.4213736127944956 0.016199792088975762 -2.421538979710232 M -0.013892972521559924 -2.4598830360794004 Q -0.0136526001814814 -2.4632925421307372 -0.013501238912162171 -2.4689110429536534 Q -0.013349877642842935 -2.474529543776569 -0.013702758119434555 -2.4799388473586865 Q -0.014055638596026168 -2.485348150940804 -0.01499860808284241 -2.4893305765495026 Q -0.015941577569658638 -2.4933130021582013 -0.017402794448802952 -2.4934160188753776 Q -0.01886401132794726 -2.493519035592554 -0.021313378439605 -2.490020518470458 Q -0.02376274555126273 -2.486522001348362 -0.026558665526621034 -2.4815794367999846 Q -0.029354585501979336 -2.476636872251607 -0.031714941542877795 -2.470929360357932 Q -0.03407529758377624 -2.4652218484642563 -0.035324153415676476 -2.4613939479313225 L -0.013892972521559924 -2.4598830360794004 M 0.4409564832616751 -2.538905144442001 Q 0.4359772036119007 -2.5210310513911076 0.4200399831759086 -2.512038615729801 Q 0.4041027627399165 -2.503046180068494 0.38622866968902303 -2.5080254597182687 Q 0.36835457663812954 -2.513004739368043 0.35936214097682284 -2.528941959804035 Q 0.3503697053155161 -2.5448791802400272 0.3553489849652905 -2.5627532732909204 Q 0.3578386247901777 -2.5716903198163674 0.36329327651590226 -2.5785342034424548 Q 0.3687479282416268 -2.585378087068542 0.376265485051057 -2.5896198020031207 Q 0.38378304186048723 -2.5938615169376993 0.3924613969364915 -2.59499205738862 Q 0.40113975201249585 -2.5961225978395404 0.41007679853794254 -2.5936329580146533 Q 0.4190138450633893 -2.591143318189766 0.4258577286894767 -2.5856886664640415 Q 0.43270161231556414 -2.580234014738317 0.4369433272501428 -2.5727164579288866 Q 0.44118504218472143 -2.5651989011194565 0.44231558263564186 -2.556520546043452 Q 0.4434461230865623 -2.547842190967448 0.4409564832616751 -2.538905144442001 M 0.2883532662695491 -2.16578026403794 Q 0.31099833545044475 -2.179746852853574 0.3351737979083344 -2.1955680432331413 Q 0.35934926036622405 -2.211389233612709 0.38211361021483264 -2.2276035250172583 Q 0.40487796006344123 -2.243817816421808 0.42468905101849364 -2.2603479390065613 Q 0.44450014197354604 -2.2768780615913147 0.45760676008424056 -2.2929949530370695 Q 0.46472283876195314 -2.302163809096851 0.476482110505962 -2.298887967221999 Q 0.48447841529188806 -2.2966603947471 0.48791042216194 -2.2898752761574186 Q 0.49134242903199205 -2.2830901575677367 0.48950795758207516 -2.2765049653910916 Q 0.48845968818212265 -2.272741998433009 0.48613133984788315 -2.2698425033696688 Q 0.4684990587437037 -2.2483969926669936 0.44234633815362195 -2.227297570960176 Q 0.4161936175635402 -2.2061981492533587 0.38704900315751317 -2.186185631868883 Q 0.35790438875148617 -2.1661731144844074 0.3282121336309206 -2.147833777059201 Q 0.2985198785103551 -2.1294944396339943 0.2738085283452081 -2.113569097494541 Q 0.26379620521544334 -2.0758083942387184 0.254412168545541 -2.03939328675468 Q 0.24502813187563866 -2.0029781792706416 0.2359868083010483 -1.9705225892571772 Q 0.19995254767768086 -1.8411706000730794 0.15712504193641125 -1.7856870928446318 Q 0.11429753619514169 -1.730203585616184 0.06396785313078371 -1.7442241888405488 Q 0.04656413094965056 -1.749072434815329 0.03407917278698458 -1.7606604126563106 Q 0.021594214624318597 -1.7722483904972923 0.015177065739412687 -1.7892422574399722 Q 0.008759916854506805 -1.8062361243826524 0.008645762682241154 -1.8285703635895338 Q 0.008531608509975475 -1.8509046027964153 0.015869494309643045 -1.877245371502995 Q 0.023993582159274968 -1.906408365428137 0.04138567662238446 -1.9388185687181212 Q 0.05877777108549398 -1.9712287720081052 0.08669106918126016 -2.005016454191171 Q 0.11460436727702629 -2.0388041363742366 0.15335132428510742 -2.072361634328612 Q 0.19209828129318854 -2.1059191322829873 0.24246172336300334 -2.137507749211906 Q 0.25373061941249275 -2.1779596440112967 0.26540436949424556 -2.218045319700813 Q 0.2770781195759983 -2.2581309953903292 0.28854019023743316 -2.294727524479032 Q 0.30000226089886806 -2.3313240535677346 0.31109473654988296 -2.3629548066088457 Q 0.3221872122008979 -2.394585559649957 0.3319542221941454 -2.418729013697291 Q 0.334860469058577 -2.4255225093937085 0.34097866626600737 -2.4283799936341137 Q 0.34709686347343766 -2.4312374778745194 0.35415242651984297 -2.4292719727496084 Q 0.36120798956624833 -2.4273064676246974 0.3649406987086775 -2.420691017632399 Q 0.3686734078511067 -2.4140755676401002 0.3665768690512017 -2.4065496337239347 Q 0.3657906670012373 -2.4037274085053726 0.359820257682272 -2.38866378766576 Q 0.3538498483633067 -2.3736001668261477 0.34358220968464515 -2.3440205658614612 Q 0.3333145710059837 -2.3144409648967748 0.3192855906748835 -2.2704495355669003 Q 0.30525661034378326 -2.226458106237026 0.2883532662695491 -2.16578026403794 M 0.41414534368533484 -2.5463740639166628 Q 0.41597981513525173 -2.552959256093308 0.41265196002508586 -2.559208486975732 Q 0.40932410491492 -2.5654577178581564 0.402738912738275 -2.5672921893080733 Q 0.39615372056163006 -2.5691266607579903 0.38983897284170865 -2.565563620212944 Q 0.3835242251217873 -2.562000579667898 0.3816897536718704 -2.5554153874912533 Q 0.3798552822219535 -2.548830195314608 0.3834838396044966 -2.542750633029567 Q 0.3871123969870397 -2.536671070744526 0.39369758916368464 -2.534836599294609 Q 0.4002827813403296 -2.533002127844692 0.40629682678787377 -2.536395499792355 Q 0.41231087223541796 -2.5397888717400177 0.41414534368533484 -2.5463740639166628 M 0.20149519511898603 -1.9831723401002939 Q 0.20817791254368326 -2.007161254458072 0.21439025909862014 -2.0312812024908444 Q 0.22060260565355702 -2.0554011505236165 0.22799425528344047 -2.0837544363842317 Q 0.1890037357337437 -2.0566007090018372 0.15897714462460166 -2.0279636003715726 Q 0.1289505535154596 -1.9993264917413087 0.10700091293756742 -1.9714805863671987 Q 0.08505127235967525 -1.9436346809930887 0.07130961598802699 -1.9170503497448932 Q 0.05756795961637878 -1.8904660184966977 0.05114730954166968 -1.8674178458784403 Q 0.047478366641835884 -1.8542474615251505 0.045625390383546516 -1.840317757037004 Q 0.04377241412525712 -1.8263880525488576 0.04563201689538035 -1.8139584835220517 Q 0.04749161966550358 -1.8015289144952455 0.054058307033776065 -1.7923499307338273 Q 0.06062499440204852 -1.783170946972409 0.07379537875533848 -1.7795020040725753 Q 0.07896945832270236 -1.7780606336476406 0.08668018974407801 -1.7784469828715315 Q 0.09439092116545364 -1.7788333320954224 0.10384372528414118 -1.7845634294840602 Q 0.11329652940282872 -1.790293526872698 0.12441413637405002 -1.802909518710358 Q 0.1355317433452713 -1.8155255105480181 0.1480554617195839 -1.838647577110508 Q 0.1605791800938965 -1.8617696436729978 0.17396136915676183 -1.8970709649195867 Q 0.1873435582196272 -1.9323722861661756 0.20149519511898603 -1.9831723401002939 M 0.4795114071605344 -2.170337784662175 Q 0.4943630151026046 -2.1811116778873028 0.5126486446912705 -2.193060356976353 Q 0.5309342742799364 -2.205009036065403 0.5509741241568735 -2.217106553014347 Q 0.5710139740338107 -2.2292040699632913 0.5922192120842382 -2.24038112927509 Q 0.6134244501346656 -2.251558188586889 0.6343074603531618 -2.260125591212786 Q 0.6549549377257455 -2.268265275639867 0.6712233837024448 -2.2679466887670903 Q 0.6874918296791439 -2.2676281018943136 0.6986125028483463 -2.2615042479005902 Q 0.7097331760175487 -2.2553803939068673 0.71560058601237 -2.2462964623240125 Q 0.7214679960071912 -2.2372125307411577 0.722574882265961 -2.2265694425885734 Q 0.7236817685247308 -2.2159263544359895 0.720809148515133 -2.2041301541659877 Q 0.7179365285055354 -2.1923339538959854 0.7113416088199873 -2.180357844329152 Q 0.7059243533640015 -2.170520325756396 0.6949316069017034 -2.1551130729086063 Q 0.6839388604394052 -2.1397058200608163 0.6740464809110833 -2.1217416557105664 Q 0.6683936926091849 -2.1114764189389947 0.6639279662272816 -2.10083620915205 Q 0.6594622398453782 -2.0901959993651054 0.6578850504882989 -2.0807522491885884 Q 0.6563078611312195 -2.071308499012071 0.6591595699878279 -2.0633278127288315 Q 0.6620112788444361 -2.055347126445592 0.6709933610195611 -2.050400936681431 Q 0.6812585977911325 -2.044748148379533 0.6947035279825217 -2.0448695557616436 Q 0.7081484581739108 -2.044990963143754 0.7232854657796964 -2.0491973671611166 Q 0.7384224733854821 -2.0534037711784787 0.7538817088231988 -2.0602198318817435 Q 0.7693409442609156 -2.067035892585008 0.7830893069033704 -2.074794084671922 Q 0.7968376695458252 -2.0825522767588365 0.8084040937011934 -2.0903971638317698 Q 0.8199705178565615 -2.0982420509047026 0.8273963218275966 -2.103628997517266 Q 0.8370907592717372 -2.111111187630898 0.8477837142421241 -2.1052228664830874 Q 0.8550549236219872 -2.101218808102576 0.8565057114591927 -2.093730861257666 Q 0.8579564992963984 -2.086242914412756 0.8546590394536244 -2.0802548596293393 Q 0.852774776686325 -2.0768331140388154 0.8498428921684916 -2.0745456851848445 Q 0.8462477566059303 -2.0720660709779706 0.8354406761717417 -2.0640817437355765 Q 0.8246335957375529 -2.0560974164931825 0.808520506945541 -2.046575606427564 Q 0.792407418153529 -2.037053796361946 0.7728075625314793 -2.027779795198312 Q 0.7532077069094295 -2.018505794034678 0.7325508318464129 -2.0128796736170473 Q 0.7118939567833964 -2.007253553199417 0.6916893520313392 -2.007509997198319 Q 0.671484747279282 -2.0077664411972207 0.654376019326663 -2.0171877550337176 Q 0.6347009821811511 -2.0280222659456895 0.6273177631096101 -2.042957690508139 Q 0.6199345440380691 -2.057893115070589 0.6203708973338021 -2.074375420146696 Q 0.620807250629535 -2.090857725222803 0.6271695158348098 -2.1079787292314935 Q 0.6335317810400846 -2.1250997332401846 0.6417754306470196 -2.1400698701987264 Q 0.6460150218734433 -2.1477687977774047 0.6514850225128712 -2.1561837215842536 Q 0.6569550231522993 -2.164598645391102 0.6625211164681788 -2.172681943675587 Q 0.6680872097840582 -2.180765241960071 0.6728506118857489 -2.1878970111704734 Q 0.6776140139874396 -2.1950287803808757 0.6804404081383888 -2.2001613987666615 Q 0.6877419263616741 -2.2134206629299413 0.6866971829767792 -2.220127592307167 Q 0.6856524395918844 -2.2268345216843928 0.6809475394049143 -2.2294253829894295 Q 0.6741040482238666 -2.2331939085240284 0.6609784674987694 -2.230109545187147 Q 0.6478528867736723 -2.2270251818502653 0.6311632419229511 -2.2194931249188308 Q 0.6144735970722301 -2.2119610679873962 0.5960174558771658 -2.2012211245648454 Q 0.5775613146821016 -2.1904811811422946 0.5598645172082167 -2.179601797550283 Q 0.542167719734332 -2.1687224139582715 0.5270061600164024 -2.1583979126784643 Q 0.511844600298473 -2.148073411398657 0.5019579775014293 -2.1412544723297535 Q 0.4830835157979824 -2.1282364977436643 0.47047234825771944 -2.127098540047957 Q 0.4578611807174565 -2.12596058235225 0.45058997133759343 -2.1299646407327613 Q 0.4373307071743137 -2.137266158956047 0.43604391161871286 -2.151631546784581 Q 0.43475711606311196 -2.165996934613115 0.443000765670047 -2.180967071571657 L 0.45783933496252993 -2.207913318097032 Q 0.5023550428399789 -2.2887520576731566 0.542962785013368 -2.3619879623470545 Q 0.5835705271867573 -2.4352238670209525 0.6202363538535101 -2.4972524035396293 Q 0.6569021805202628 -2.559280940058306 0.6895393966943606 -2.607920169934675 Q 0.7221766128684582 -2.6565593998110435 0.7510612205231835 -2.6877553978467903 Q 0.7799458281779086 -2.718951395882537 0.8046811805513833 -2.730971615535895 Q 0.829416532924858 -2.742991835189253 0.8503747246668163 -2.731450725739544 Q 0.8683388890170662 -2.7215583462112223 0.8753254613267292 -2.7048903751070057 Q 0.8823120336363921 -2.688222404002789 0.8807074138015297 -2.6670879439231543 Q 0.8791027939666675 -2.645953483843519 0.8701590651467888 -2.621614015638407 Q 0.86121533632691 -2.5972745474332957 0.8475544312639892 -2.572466891901998 Q 0.8197615554463227 -2.5219961444417716 0.7838326361607293 -2.4785140850633325 Q 0.747903716875136 -2.435032025684893 0.7070683143592367 -2.3973176426656693 Q 0.6662329118433372 -2.359603259646445 0.6215603215941705 -2.3270677208716557 Q 0.5768877313450038 -2.294532182096866 0.531371980754278 -2.2655267576451235 Q 0.5271323895278544 -2.2578278300664447 0.5212440683800436 -2.247134875096058 Q 0.5153557472322329 -2.236441920125671 0.5094674260844222 -2.225748965155284 Q 0.5035791049366115 -2.215056010184897 0.4983973823265381 -2.205646209810957 Q 0.49321565971646464 -2.196236409437016 0.49015373271960305 -2.190676072852415 L 0.4795114071605344 -2.170337784662175 M 0.5664230273022204 -2.328165800025086 Q 0.6060562134764138 -2.357623494787788 0.6414216153528852 -2.386922954000163 Q 0.6767870172293566 -2.4162224132125383 0.707757470694717 -2.4476633417846303 Q 0.7387279241600775 -2.4791042703567223 0.7657961686526564 -2.514087589307933 Q 0.7928644131452354 -2.5490709082591443 0.815711099198741 -2.5905595735442457 Q 0.8194796247333398 -2.597403064725293 0.8270816970420516 -2.612726500952703 Q 0.8346837693507634 -2.628049937180114 0.8399550653124948 -2.6452142886818137 Q 0.8452263612742261 -2.6623786401835146 0.8449561160322218 -2.677577790663175 Q 0.8446858707902174 -2.692776941142835 0.8327097612233841 -2.6993718608283834 Q 0.8232999608494437 -2.7045535834384564 0.8095082507139795 -2.6957044221079993 Q 0.7957165405785152 -2.6868552607775413 0.7786895134741518 -2.668081885888309 Q 0.7616624863697885 -2.6493085109990764 0.742460040103132 -2.622535654445739 Q 0.7232575938364756 -2.5957627978924016 0.703454039398966 -2.564861597210803 Q 0.6836504849614564 -2.5339603965292046 0.663974094637336 -2.500759490937563 Q 0.6442977043132154 -2.4675585853459214 0.626322789093924 -2.435929112380081 Q 0.6083478738746326 -2.4042996394142406 0.5930382388903248 -2.3764979564912347 Q 0.577728603906017 -2.348696273568229 0.5664230273022204 -2.328165800025086 M 0.9501261849918161 -1.8355222949323426 Q 0.941604224370805 -1.8442623063232055 0.9365259361213747 -1.852268228679623 Q 0.9209247460797325 -1.8472858827689276 0.9048514875394031 -1.845935092503821 Q 0.8887782289990737 -1.8445843022387143 0.8727616636589057 -1.8477216246966952 Q 0.8567450983187377 -1.850858947154676 0.8413096268621829 -1.8589956999730044 Q 0.8258741554056281 -1.867132452791333 0.8122390184120104 -1.8811164710167136 Q 0.7962177324445096 -1.8975476924315358 0.7886918813937017 -1.9168066042111491 Q 0.7811660303428938 -1.9360655159907625 0.7815937694637392 -1.9562598427369566 Q 0.7820215085845844 -1.9764541694831506 0.7910758726959697 -1.9961942314041812 Q 0.8001302368073548 -2.015934293325212 0.8176102595890806 -2.032978214567234 Q 0.8399846887496896 -2.0547944337570225 0.8644309141636592 -2.0629453484573497 Q 0.8888771395776288 -2.0710962631576773 0.9101159066753294 -2.0713459198711157 Q 0.9313546737730299 -2.071595576584554 0.9469998335805783 -2.0663911785005458 Q 0.9626449933881265 -2.0611867804165374 0.9677581697607331 -2.0559427735820193 Q 0.9735531029830207 -2.0499995658362327 0.9733041654934539 -2.0439600561397753 Q 0.973055228003887 -2.037920546443318 0.9678112211693694 -2.0328073700707114 Q 0.9618680134235826 -2.0270124368484237 0.9553171860898646 -2.0277857750214423 Q 0.9487663587561466 -2.028559113194461 0.9405155003136233 -2.0314256930858896 Q 0.9322646418711 -2.0342922729773183 0.9210596236172716 -2.0356423440185534 Q 0.9098546053634431 -2.036992415059788 0.896879779754457 -2.034911896775633 Q 0.8839049541454707 -2.0328313784914784 0.8700081562280308 -2.0261010303026104 Q 0.8561113583105909 -2.019370682113742 0.843176141452114 -2.0067581803946455 Q 0.831639326416175 -1.9955091923749109 0.8250844976789957 -1.9822981527106132 Q 0.8185296689418166 -1.9690871130463152 0.8178395496732774 -1.9554566966800304 Q 0.8171494304047383 -1.9418262803137456 0.821991864210793 -1.928816566581583 Q 0.8268342980168476 -1.9158068528494205 0.8377424076117418 -1.904619638269116 Q 0.8571724778276472 -1.8846924122979487 0.8792198308334784 -1.8806156734699262 Q 0.9012671838393097 -1.8765389346419037 0.9224183710171336 -1.8835229409476717 Q 0.9131441580762174 -1.9147165990001618 0.9201180039034479 -1.9474314865301787 Q 0.9270918497306784 -1.9801463740601957 0.9519134820807289 -2.004348742223867 Q 0.9718407080518962 -2.0237788124397724 0.9938004811378509 -2.0264364232040792 Q 1.0157602542238056 -2.029094033968386 1.0310997833416256 -2.013362013464833 Q 1.0403035008123176 -2.0039228011627013 1.0439397770852397 -1.9911009707045468 Q 1.0475760533581615 -1.9782791402463928 1.0440934914599433 -1.9622669359216218 Q 1.0406109295617252 -1.9462547315968508 1.0289781721870515 -1.9274104758918917 Q 1.0173454148123777 -1.9085662201869324 0.9960197870186723 -1.8877726362716654 Q 0.9848325724383679 -1.8768645266767712 0.9698695290924363 -1.8677305854524318 Q 0.9715651991858445 -1.8652921042937842 0.9736104697348871 -1.8631945015599771 Q 0.9756557402839298 -1.86109689882617 0.9780418892578129 -1.8586496956367284 Q 0.9896317557023879 -1.846763280145155 1.0016322768181563 -1.8400510952417466 Q 1.0136327979339241 -1.8333389103383384 1.0267257305705662 -1.831101755111826 Q 1.0398186632072082 -1.828864599885314 1.0545240470327788 -1.831268552532721 Q 1.0692294308583494 -1.8336725051801281 1.0862203006917355 -1.8393278859097104 Q 1.089340538700064 -1.8403243550918496 1.0946721254544582 -1.838703181872127 Q 1.1000037122088524 -1.8370820086524042 1.103412496457257 -1.833586004096059 Q 1.1078439159801827 -1.8290411981728103 1.1080932130816854 -1.8214415694721888 Q 1.108342510183188 -1.8138419407715671 1.1023993024374015 -1.8080470075492796 Q 1.0996024987923252 -1.8053199801505562 1.0949177807644357 -1.80348003693711 Q 1.090233062736546 -1.8016400937236638 1.0860727453921082 -1.8003114681474783 Q 1.0697897985007851 -1.7960283231480516 1.052506021411926 -1.794520176716716 Q 1.0352222443230668 -1.7930120302853805 1.0176586430249257 -1.796686836473004 Q 1.0000950417267847 -1.8003616426606277 0.9829464561152336 -1.809555918876654 Q 0.9657978705036825 -1.81875019509268 0.9501261849918161 -1.8355222949323426 M 0.9799352891639979 -1.9812053359056365 Q 0.9732928805069421 -1.9747286458336681 0.9676556630628195 -1.9658221966338463 Q 0.9620184456186969 -1.9569157474340244 0.958430859739014 -1.946256934940633 Q 0.9548432738593311 -1.9355981224472414 0.9536592810151194 -1.9238730645253581 Q 0.9524752881709079 -1.9121480066034748 0.9550889291693085 -1.9003749775122243 Q 0.9634531740121546 -1.90648462306697 0.970445183124845 -1.9133021915637791 Q 0.9798843954269768 -1.922505909034471 0.9883096944853814 -1.9334489067525416 Q 0.9967349935437861 -1.944391904470612 1.0023940160648939 -1.9550245508716213 Q 1.0080530385860016 -1.9656571972726307 1.009372582519457 -1.9744455394447966 Q 1.0106921264529127 -1.9832338816169628 1.005578950080306 -1.9884778884514804 Q 1.0035336795312633 -1.9905754911852875 0.9969784911821483 -1.9910035899180687 Q 0.9904233028330333 -1.9914316886508499 0.9799352891639979 -1.9812053359056365 M 1.1747233109736843 -1.7771490538093586 Q 1.1622566932172198 -1.7724368056044288 1.1508074305721632 -1.7694095768319364 Q 1.1393581679271065 -1.7663823480594443 1.1305868203235376 -1.7645681504172224 Q 1.1218154727199687 -1.7627539527750005 1.116173009306695 -1.7618451337793906 Q 1.1105305458934214 -1.7609363147837807 1.1098663219213893 -1.7611251101046477 Q 1.0976794567972274 -1.7599227770807444 1.0917365986576648 -1.77058551824198 Q 1.0884085980995097 -1.776556653292272 1.0900343774802388 -1.7841707694682816 Q 1.0916601568609678 -1.791784885644291 1.0984843112041587 -1.7955883148536111 Q 1.1010433690828552 -1.7970146008071062 1.1027983266733685 -1.7968747244909549 Q 1.1045532842638819 -1.7967348481748036 1.1093427283842567 -1.7971682385192482 Q 1.1141321725046316 -1.7976016288636931 1.1245151610335646 -1.800034571822229 Q 1.1348981495624977 -1.802467514780765 1.1558040029365153 -1.8090883582883504 Q 1.1517628594016127 -1.8163390222779907 1.1479105111875771 -1.8242539102396629 Q 1.1440581629735413 -1.832168798201335 1.1429326488057092 -1.8402059836747964 Q 1.1418071346378769 -1.8482431691482575 1.1449746167858945 -1.8555985518453244 Q 1.1481420989339122 -1.862953934542391 1.157951820802249 -1.8684213640307887 Q 1.1652024847918891 -1.8724625075656913 1.1798295506319565 -1.8753043813663144 Q 1.1944566164720238 -1.8781462551669375 1.210202315781928 -1.8779781019400565 Q 1.225948015091832 -1.8778099487131759 1.2394457493556954 -1.8741528994586285 Q 1.2529434836195588 -1.8704958502040812 1.2576977701312089 -1.8619656572750927 Q 1.2631651996196065 -1.8521559354067558 1.2593613933509125 -1.8419304019983365 Q 1.2555575870822184 -1.831704868589917 1.2470098153488673 -1.8224687904415504 Q 1.2384620436155163 -1.8132327122931835 1.2277782833009205 -1.805321641739883 Q 1.2170945229863246 -1.7974105711865824 1.208564330057336 -1.7926562846749323 Q 1.2126054735922387 -1.785405620685292 1.2167410147875746 -1.7784870686816676 Q 1.2208765559829107 -1.7715685166780433 1.2244422708666483 -1.7651708719813017 Q 1.2379919874248508 -1.7408598221336844 1.2344606760310903 -1.722121674600639 Q 1.2309293646373296 -1.7033835270675932 1.206618314789712 -1.6898338105093906 Q 1.1968085929213752 -1.684366381020993 1.185432708783392 -1.6797030518207787 Q 1.1740568246454086 -1.6750397226205644 1.1618034617121689 -1.670446331578426 Q 1.1495500987789289 -1.6658529405362872 1.1377477049944962 -1.6609518970104904 Q 1.1259453112100635 -1.6560508534846936 1.1152825700488276 -1.650107995345131 Q 1.0999282227766483 -1.6415502796241608 1.0922823893409115 -1.6316988965084778 Q 1.084636555905175 -1.6218475133927945 1.0822311357386205 -1.6121218681378982 Q 1.079825715572066 -1.6023962228830015 1.0815210560514967 -1.5938381301026576 Q 1.0832163965309274 -1.5852800373223135 1.0865443970890825 -1.5793089022720215 Q 1.0967661130891302 -1.560968987474696 1.1177415275618494 -1.5514176220259277 Q 1.1387169420345686 -1.5418662565771595 1.163170931487961 -1.5376076637512865 Q 1.1876249209413539 -1.5333490709254136 1.2124530606874826 -1.5329325052665834 Q 1.2372812004336113 -1.532515939607753 1.2553971623013451 -1.5331098483623353 Q 1.2604243207473025 -1.5331167290603307 1.2646962979097922 -1.5304667138701984 Q 1.268968275072282 -1.527816698680066 1.271345418328107 -1.5235516022155717 Q 1.2756242761885919 -1.5158744285794818 1.2730965585102485 -1.508875617370789 Q 1.2705688408319051 -1.5018768061620957 1.264597705781613 -1.4985488056039407 Q 1.2603326093171188 -1.4961716623481156 1.2559696748431932 -1.4959759863292534 Q 1.233015349850369 -1.4960394208487076 1.203799816127957 -1.4968056772979164 Q 1.174584282405545 -1.497571933747125 1.1461204896176032 -1.50350866530744 Q 1.117656696829661 -1.5094453968677553 1.0929057529989772 -1.522761970627495 Q 1.0681548091682935 -1.5360785443872347 1.0543673782845082 -1.5608161038813018 Q 1.0458096625635382 -1.5761704511534813 1.0439606843719653 -1.5930279032352268 Q 1.0421117061803926 -1.6098853553169723 1.0474014155136642 -1.6259700473108878 Q 1.052691124846936 -1.6420547393048033 1.0653572360306345 -1.6569401615644392 Q 1.078023347214333 -1.671825583824075 1.0980693005974562 -1.6829981571264527 Q 1.1193947829199278 -1.694883873405578 1.1428841536749996 -1.7023856360574174 Q 1.1663735244300715 -1.709887398709257 1.1855664585202959 -1.7205845433604698 Q 1.193670141802835 -1.7251011155465374 1.1957014116766533 -1.7309847336343913 Q 1.1977326815504716 -1.7368683517222452 1.190838966108579 -1.7492371314692787 Q 1.187510965550424 -1.7552082665195707 1.1835886791783126 -1.7622456756859863 Q 1.1796663928062014 -1.769283084852402 1.1747233109736843 -1.7771490538093586 M 1.1903581649969144 -1.8233160602145757 Q 1.1933437325220604 -1.8249800604936532 1.1981297362934376 -1.8279270300610768 Q 1.202915740064815 -1.8308739996285002 1.2072507746873848 -1.834128621679582 Q 1.2115858093099547 -1.8373832437306636 1.214403600667594 -1.8403512324514473 Q 1.217221392025233 -1.843319221172231 1.2165082490484855 -1.844598750111579 Q 1.215795106071738 -1.8458782790509274 1.2115265692582462 -1.846014715018081 Q 1.2072580324447542 -1.8461511509852346 1.2015911095291227 -1.8457876987988655 Q 1.195924186613491 -1.8454242466124964 1.1898552135537679 -1.8442777132913042 Q 1.1837862404940447 -1.8431311799701118 1.1798987346712844 -1.8420824846583506 L 1.1903581649969144 -1.8233160602145757" fill="#212121" fill-rule="nonzero"></path></g><g clip-path="url(#SvgjsClipPath1002)"><g clip-path="url(#SvgjsClipPath1000e2dde578-9ea0-4c7e-9238-09fe0db6171d)"><path d=" M 0.5982475375021756 -1.8139852296818793 L -0.7851983155586415 -1.8139852296818793 L -0.7851983155586415 -0.4305393766210621 L 0.5982475375021756 -0.4305393766210621 Z M -0.8412869141232378 -1.8700738282464755 L -0.8412869141232378 -0.37445077805646587 L 0.6543361360667719 -0.37445077805646587 L 0.6543361360667719 -1.8700738282464755 Z" fill="#212121" transform="matrix(1,0,0,1,0,0)" fill-rule="evenodd"></path></g><g clip-path="url(#SvgjsClipPath1000e2dde578-9ea0-4c7e-9238-09fe0db6171d)"><path d=" M 0.7851983155586417 -1.6270344516254134 L -0.5982475375021756 -1.6270344516254134 L -0.5982475375021756 -0.24358859856459603 L 0.7851983155586417 -0.24358859856459603 Z M -0.6543361360667719 -1.6831230501900096 L -0.6543361360667719 -0.1875 L 0.8412869141232378 -0.1875 L 0.8412869141232378 -1.6831230501900096 Z" fill="#212121" transform="matrix(1,0,0,1,0,0)" fill-rule="evenodd"></path></g><path d=" M 0.10157870620350196 -1.3948759154447532 L 0.38696225304389353 -1.3948759154447532 L 0.38696225304389353 -1.2586250901303302 L 0.3260209748123516 -1.2586250901303302 L 0.3260209748123516 -0.6437622748023336 L 0.16152906934184807 -0.6437622748023336 L -0.15110464256142814 -1.1293106704682776 L -0.15110464256142814 -0.7795176425701588 L -0.08818153414349456 -0.7795176425701588 L -0.08818153414349456 -0.6437622748023336 L -0.3730696234372883 -0.6437622748023336 L -0.3730696234372883 -0.7795176425701588 L -0.3111374301125505 -0.7795176425701588 L -0.3111374301125505 -1.2586250901303302 L -0.37207870834409246 -1.2586250901303302 L -0.37207870834409246 -1.3948759154447532 L -0.14515915200225332 -1.3948759154447532 L 0.16549272971463136 -0.9028865716730364 L 0.16549272971463136 -1.2586250901303302 L 0.10157870620350196 -1.2586250901303302 L 0.10157870620350196 -1.3948759154447532" fill="#212121" transform="matrix(1,0,0,1,0,0)" fill-rule="nonzero"></path></g></g><defs><clipPath id="SvgjsClipPath1002"><path d=" M -0.8412869141232378 -1.8700738282464755 h 1.6825738282464755 v 1.6825738282464755 h -1.6825738282464755 Z"></path></clipPath><clipPath id="SvgjsClipPath1000e2dde578-9ea0-4c7e-9238-09fe0db6171d"><path d=" M -0.8412869141232378 -1.8700738282464755 L 0.8412869141232378 -1.8700738282464755 L 0.8412869141232378 -0.1875 L -0.8412869141232378 -0.1875 Z"></path></clipPath></defs></svg>